<svg width="481" height="482" xmlns="http://www.w3.org/2000/svg" xmlns:xlink="http://www.w3.org/1999/xlink" overflow="hidden"><defs><clipPath id="clip0"><rect x="196" y="176" width="481" height="482"/></clipPath><clipPath id="clip1"><rect x="360" y="320" width="264" height="264"/></clipPath><clipPath id="clip2"><rect x="360" y="320" width="264" height="264"/></clipPath><clipPath id="clip3"><rect x="360" y="320" width="264" height="264"/></clipPath></defs><g clip-path="url(#clip0)" transform="translate(-196 -176)"><rect x="230" y="311" width="137" height="18" fill="#FFFFFF"/><rect x="353" y="311" width="295" height="18" fill="#FFFFFF" fill-opacity="0.560784"/><path d="M322 317C322 296.013 339.013 279 360 279 380.987 279 398 296.013 398 317 398 337.987 380.987 355 360 355 339.013 355 322 337.987 322 317Z" fill="#FFFFFF" fill-rule="evenodd"/><g clip-path="url(#clip1)"><g clip-path="url(#clip2)"><g clip-path="url(#clip3)"><path d="M621.163 532.969 547.526 459.3 601.248 428.252C604.395 426.432 606.227 422.975 605.964 419.349 605.702 415.723 603.392 412.565 600.016 411.22L373.066 320.677C369.541 319.27 365.522 320.097 362.838 322.78 360.156 325.461 359.329 329.483 360.733 333.005L451.234 560.058C452.58 563.436 455.737 565.748 459.364 566.01 462.992 566.277 466.451 564.44 468.268 561.291L499.294 507.558 572.925 581.219C574.705 583 577.12 584 579.637 584 582.156 584 584.571 582.999 586.351 581.219L621.162 546.387C624.868 542.681 624.868 536.674 621.163 532.969Z" fill="#404040"/></g></g></g></g></svg>